<?xml version="1.0" encoding="UTF-8"?>
<svg id="Layer_1" data-name="Layer 1" xmlns="http://www.w3.org/2000/svg" xmlns:xlink="http://www.w3.org/1999/xlink" viewBox="0 0 160.1 33.14">
  <defs>
    <style>
      .cls-1 {
        fill: #1a3a51;
      }

      .cls-2 {
        fill: #1b3d55;
      }

      .cls-3 {
        fill: #1b3a50;
      }

      .cls-4 {
        fill: #193b52;
      }

      .cls-5 {
        fill: #193a51;
      }

      .cls-6 {
        fill: url(#linear-gradient);
      }
    </style>
    <linearGradient id="linear-gradient" x1="741.96" y1="-.55" x2="779.02" y2="215.29" gradientTransform="translate(.04 7.43) scale(.12)" gradientUnits="userSpaceOnUse">
      <stop offset="0" stop-color="#42ac96"/>
      <stop offset=".69" stop-color="#3599b2"/>
      <stop offset="1" stop-color="#3484a5"/>
    </linearGradient>
  </defs>
  <path class="cls-6" d="M90.2,7l.44,2.43c.47.05,1.14.45,1.6.34.2-.05,1.01-1.87,1.74-1.73.3.06,2.48,1.4,2.59,1.61.21.39-.83,1.65-.86,2.17,0,.16.93,1.21,1.14,1.27.43.12,1.81-1.03,2.21-.83.21.1,1.65,2.57,1.61,2.78-.03.13-.38.42-.5.54-.21.19-1.27.89-1.31.96-.14.23.32,1.67.56,1.78.49.24,1.84.04,2.15.41.38.45.08,2.3.18,2.94-.38.49-2.32.41-2.51.66l-.39,1.55c.41.57,1.92,1.18,1.7,1.97-.41.43-1.09,2.25-1.57,2.39-.73.21-1.78-1.29-2.59-.5-.11.11-.65.81-.65.93l.88,2.08c-.02.09-1.37.97-1.58,1.09-.18.11-.94.56-1.05.58-.77.2-1.35-1.78-1.94-1.73-.39.03-.93.53-1.46.35l-.24,1.97h-3.53s-.36-1.85-.36-1.85c-.05-.07-1.4-.48-1.51-.47-.34.03-1.28,1.77-1.73,1.73-.28-.03-2.58-1.5-2.7-1.73-.18-.33,1.05-1.57.7-2.32-.11-.23-.77-.89-1.05-.89-.31,0-1.41.68-1.77.75-.61.12-.77-.32-1.05-.76-.38-.58-.65-1.29-1.05-1.86-.04-.1-.02-.18.04-.27.13-.21,1.22-.89,1.51-1.16.14-.13.3-.24.39-.42l-.46-1.54c-.61-.17-2.24.05-2.4-.68-.07-.32-.08-2.49.03-2.71.2-.41,1.89-.29,2.36-.49l.47-1.7-1.73-1.35c-.15-.16-.13-.37-.09-.57.03-.14,1.28-2.32,1.4-2.39.53-.31,1.85.84,2.36.79.24-.02,1.25-1.03,1.21-1.31-.08-.56-1.08-1.59-.9-2.21.07-.24,2.59-1.74,2.77-1.66.56.35,1.01,1.48,1.45,1.82.18.14,1.64-.33,1.75-.48.32-.43.08-2.12.64-2.38.28-.13,2.97-.09,3.12.08ZM95.09,20.17c0-3.65-2.96-6.62-6.62-6.62s-6.62,2.96-6.62,6.62,2.96,6.62,6.62,6.62,6.62-2.96,6.62-6.62Z"/>
  <path class="cls-3" d="M145.45,31.97v-2.79c-.7.56-1.36,1.19-2.13,1.65-4.71,2.79-13.16,1.46-13.88-4.88-.6-5.35,3.3-7.82,8.17-7.93h7.73c-.02-2.8-.27-5.17-3.28-6.08-3.26-.98-7.29.11-10.02,2.01-.19-.04-1.43-2.95-1.52-3.37,2.13-1.67,4.48-2.74,7.21-3.02,6.71-.69,11.87,1.39,12.27,8.77.27,4.99-.22,10.22,0,15.24.03.12-.08.4-.18.4h-4.36ZM137.49,21.28c-1.86.38-3.55,1.58-3.43,3.66.27,4.76,9.05,4.07,10.72.37.36-.79.62-2.66.57-3.51,0-.13-.02-.52-.18-.52h-7.67Z"/>
  <path class="cls-1" d="M44.41,31.97h-4.59c-.1,0-.21-.28-.18-.4-.17-4.29.24-8.77.01-13.03s-2.22-7.17-6.77-6.65c-3.19.36-5.9,3.42-5.9,6.65v13.25l-.17.17h-4.42l-.17-.17V7.96l.17-.17h4.36v3.72c1.46-1.56,3.02-3.2,5.21-3.69,6.46-1.43,12.03,1.62,12.46,8.51v15.64Z"/>
  <path class="cls-5" d="M108.94,7.79c1.85,2.92,3.96,5.69,5.99,8.49.14.04.21-.09.29-.18.31-.33.8-1.06,1.09-1.46,1.68-2.28,3.22-4.66,4.95-6.9l5,.05-8.57,11.8,9.04,12.38h-5.41c-2.12-2.95-4.16-5.97-6.39-8.83l-6.74,8.83h-5.29l9.19-12.16-8.61-12.03h5.46Z"/>
  <path class="cls-2" d="M72.78,7.79l-10.38,23.86-.2.26c-.22.11-3.64.1-4.13.06-.17-.02-.43-.04-.53-.19l-10.22-23.99h4.71c1.14,2.23,2.05,4.6,3.14,6.86l4.88,11.97,7.79-18.83h4.94Z"/>
  <rect class="cls-4" x="10.46" y="1.05" width="5" height="30.93"/>
</svg>